Coordinates
version=1
nRows=9
nColumns=24
inDegrees=yes

Units are S.I. units (second, meters, Newtons, ...)
Angles are in degrees.

endheader
time	pelvis_tilt	pelvis_list	pelvis_rotation	pelvis_tx	pelvis_ty	pelvis_tz	hip_flexion_r	hip_adduction_r	hip_rotation_r	knee_angle_r	ankle_angle_r	subtalar_angle_r	mtp_angle_r	hip_flexion_l	hip_adduction_l	hip_rotation_l	knee_angle_l	ankle_angle_l	subtalar_angle_l	mtp_angle_l	lumbar_extension	lumbar_bending	lumbar_rotation
      5.88000000	     -3.31434404	     -1.44473438	      3.96528166	      0.30401217	      0.95401477	      0.19707562	      8.13756332	      6.44020323	     -9.62774268	    -12.50733847	     14.59039765	      4.01724238	      0.00000000	     25.34093007	     -0.85099261	     -3.77003987	    -53.00782690	      6.89340085	     -5.99033351	      0.00000000	    -15.67055161	      1.98530688	     -1.39909139
      5.89000000	     -3.44074969	     -1.44021841	      3.79632243	      0.31549184	      0.95439821	      0.19717289	      7.18093411	      6.54983760	     -9.41813589	    -11.87439516	     14.71158919	      4.08715309	      0.00000000	     26.27570038	     -0.95717790	     -4.29614838	    -50.81566832	      7.16545408	     -6.62602045	      0.00000000	    -15.61351636	      1.93470593	     -1.23096489
      5.90000000	     -3.56053796	     -1.49081507	      3.59783072	      0.32698339	      0.95446165	      0.19724536	      6.25186664	      6.70625021	     -9.19431321	    -11.30332580	     14.88867297	      4.16369266	      0.00000000	     27.11801861	     -1.12462763	     -4.83222429	    -48.44095989	      7.41073554	     -7.07420651	      0.00000000	    -15.55273925	      1.95226557	     -1.00386193
      5.91000000	     -3.62026019	     -1.56349239	      3.41965606	      0.33853420	      0.95432634	      0.19721978	      5.24274478	      6.88822023	     -8.87233571	    -10.71478515	     15.05503999	      4.15159090	      0.00000000	     27.79295981	     -1.27589354	     -5.29068879	    -45.85445858	      7.38507569	     -7.45358779	      0.00000000	    -15.55323835	      2.01064611	     -0.81361555
      5.92000000	     -3.70187084	     -1.69440832	      3.20612027	      0.35011618	      0.95382339	      0.19718434	      4.28428656	      7.11526144	     -8.58644544	    -10.18119219	     15.30809927	      4.22339035	      0.00000000	     28.40707828	     -1.49693339	     -5.77650114	    -43.12008271	      7.34418512	     -7.56575378	      0.00000000	    -15.50952372	      2.13150380	     -0.55101837
      5.93000000	     -3.68843909	     -1.83914477	      3.02866279	      0.36176915	      0.95317901	      0.19700411	      3.20057871	      7.35352418	     -8.28192261	     -9.61892284	     15.54879919	      4.21692272	      0.00000000	     28.81244188	     -1.68600166	     -6.18235439	    -40.20109223	      7.04712588	     -7.65642643	      0.00000000	    -15.57740445	      2.29651618	     -0.32133145
      5.94000000	     -3.66624822	     -2.02714128	      2.82731003	      0.37347331	      0.95225662	      0.19680537	      2.11615931	      7.62726785	     -7.97371650	     -9.08458238	     15.82224386	      4.25371434	      0.00000000	     29.11534116	     -1.92502295	     -6.62578833	    -37.14887394	      6.47865190	     -7.67294725	      0.00000000	    -15.64976788	      2.50958445	     -0.07544805
      5.95000000	     -3.59997005	     -2.25181691	      2.61628414	      0.38523566	      0.95113320	      0.19656453	      0.99240511	      7.92788505	     -7.68235726	     -8.57995110	     16.10864296	      4.30467802	      0.00000000	     29.27533150	     -2.19164602	     -7.08019707	    -33.97486908	      5.57348578	     -7.75417884	      0.00000000	    -15.77650253	      2.76488801	      0.17698774
      5.96000000	     -3.48500255	     -2.51144044	      2.39484828	      0.39705624	      0.94984440	      0.19626264	     -0.17202896	      8.25109669	     -7.39114039	     -8.11219553	     16.40198989	      4.36364368	      0.00000000	     29.28772715	     -2.48100267	     -7.56131849	    -30.69409986	      4.23575600	     -8.03990271	      0.00000000	    -15.97028760	      3.07449165	      0.43299426
